<?xml version="1.0" encoding="UTF-8"?>
<svg xmlns="http://www.w3.org/2000/svg" xmlns:xlink="http://www.w3.org/1999/xlink" width="122.044pt" height="82.358pt" viewBox="0 0 122.044 82.358">
<defs>
<clipPath id="clip-0">
<path clip-rule="nonzero" d="M 0 79 L 61 79 L 61 82.359375 L 0 82.359375 Z M 0 79 "/>
</clipPath>
<clipPath id="clip-1">
<path clip-rule="nonzero" d="M 54 74 L 62 74 L 62 82.359375 L 54 82.359375 Z M 54 74 "/>
</clipPath>
<clipPath id="clip-2">
<path clip-rule="nonzero" d="M 0 79 L 75 79 L 75 82.359375 L 0 82.359375 Z M 0 79 "/>
</clipPath>
<clipPath id="clip-3">
<path clip-rule="nonzero" d="M 68 74 L 76 74 L 76 82.359375 L 68 82.359375 Z M 68 74 "/>
</clipPath>
<clipPath id="clip-4">
<path clip-rule="nonzero" d="M 0 79 L 122.042969 79 L 122.042969 82.359375 L 0 82.359375 Z M 0 79 "/>
</clipPath>
<clipPath id="clip-5">
<path clip-rule="nonzero" d="M 0 0 L 122.042969 0 L 122.042969 3 L 0 3 Z M 0 0 "/>
</clipPath>
<clipPath id="clip-6">
<path clip-rule="nonzero" d="M 0 36 L 3 36 L 3 82.359375 L 0 82.359375 Z M 0 36 "/>
</clipPath>
<clipPath id="clip-7">
<path clip-rule="nonzero" d="M 0 0 L 3 0 L 3 82.359375 L 0 82.359375 Z M 0 0 "/>
</clipPath>
<clipPath id="clip-8">
<path clip-rule="nonzero" d="M 119 36 L 122.042969 36 L 122.042969 82.359375 L 119 82.359375 Z M 119 36 "/>
</clipPath>
<clipPath id="clip-9">
<path clip-rule="nonzero" d="M 114 35 L 122.042969 35 L 122.042969 43 L 114 43 Z M 114 35 "/>
</clipPath>
<clipPath id="clip-10">
<path clip-rule="nonzero" d="M 119 0 L 122.042969 0 L 122.042969 82.359375 L 119 82.359375 Z M 119 0 "/>
</clipPath>
</defs>
<path fill="none" stroke-width="0.79701" stroke-linecap="butt" stroke-linejoin="miter" stroke="rgb(0%, 0%, 0%)" stroke-opacity="1" stroke-miterlimit="10" d="M 215.437687 -39.684281 L 215.437687 39.686812 L 96.379094 39.686812 L 96.379094 -39.684281 Z M 215.437687 -39.684281 " transform="matrix(1, 0, 0, -1, -94.883, 41.179)"/>
<g clip-path="url(#clip-0)">
<path fill="none" stroke-width="2.98883" stroke-linecap="butt" stroke-linejoin="miter" stroke="rgb(100%, 0%, 0%)" stroke-opacity="1" stroke-miterlimit="10" d="M 96.379094 -39.684281 L 153.828312 -39.684281 " transform="matrix(1, 0, 0, -1, -94.883, 41.179)"/>
</g>
<g clip-path="url(#clip-1)">
<path fill="none" stroke-width="2.39107" stroke-linecap="round" stroke-linejoin="round" stroke="rgb(100%, 0%, 0%)" stroke-opacity="1" stroke-miterlimit="10" d="M -3.525325 4.704194 C -3.232356 2.938569 -0.0018875 0.294038 0.880925 0.00106875 C -0.0018875 -0.295806 -3.232356 -2.940337 -3.525325 -4.702056 " transform="matrix(1, 0, 0, -1, 58.9472, 80.86435)"/>
</g>
<g clip-path="url(#clip-2)">
<path fill="none" stroke-width="2.98883" stroke-linecap="butt" stroke-linejoin="miter" stroke="rgb(100%, 0%, 0%)" stroke-opacity="1" stroke-miterlimit="10" d="M 96.379094 -39.684281 L 168.004094 -39.684281 " transform="matrix(1, 0, 0, -1, -94.883, 41.179)"/>
</g>
<g clip-path="url(#clip-3)">
<path fill="none" stroke-width="2.39107" stroke-linecap="round" stroke-linejoin="round" stroke="rgb(100%, 0%, 0%)" stroke-opacity="1" stroke-miterlimit="10" d="M -3.52685 4.704194 C -3.233881 2.938569 0.00049375 0.294038 0.883306 0.00106875 C 0.00049375 -0.295806 -3.233881 -2.940337 -3.52685 -4.702056 " transform="matrix(1, 0, 0, -1, 73.1206, 80.86435)"/>
</g>
<g clip-path="url(#clip-4)">
<path fill="none" stroke-width="2.98883" stroke-linecap="butt" stroke-linejoin="miter" stroke="rgb(100%, 0%, 0%)" stroke-opacity="1" stroke-miterlimit="10" d="M 96.379094 -39.684281 L 215.437687 -39.684281 " transform="matrix(1, 0, 0, -1, -94.883, 41.179)"/>
</g>
<path fill="none" stroke-width="2.98883" stroke-linecap="butt" stroke-linejoin="miter" stroke="rgb(100%, 0%, 0%)" stroke-opacity="1" stroke-miterlimit="10" d="M 96.379094 39.686812 L 153.828312 39.686812 " transform="matrix(1, 0, 0, -1, -94.883, 41.179)"/>
<path fill="none" stroke-width="2.39107" stroke-linecap="round" stroke-linejoin="round" stroke="rgb(100%, 0%, 0%)" stroke-opacity="1" stroke-miterlimit="10" d="M -3.525325 4.700681 C -3.232356 2.938962 -0.0018875 0.294431 0.880925 0.0014625 C -0.0018875 -0.295413 -3.232356 -2.939944 -3.525325 -4.701663 " transform="matrix(1, 0, 0, -1, 58.9472, 1.49365)"/>
<path fill="none" stroke-width="2.98883" stroke-linecap="butt" stroke-linejoin="miter" stroke="rgb(100%, 0%, 0%)" stroke-opacity="1" stroke-miterlimit="10" d="M 96.379094 39.686812 L 168.004094 39.686812 " transform="matrix(1, 0, 0, -1, -94.883, 41.179)"/>
<path fill="none" stroke-width="2.39107" stroke-linecap="round" stroke-linejoin="round" stroke="rgb(100%, 0%, 0%)" stroke-opacity="1" stroke-miterlimit="10" d="M -3.52685 4.700681 C -3.233881 2.938962 0.00049375 0.294431 0.883306 0.0014625 C 0.00049375 -0.295413 -3.233881 -2.939944 -3.52685 -4.701663 " transform="matrix(1, 0, 0, -1, 73.1206, 1.49365)"/>
<g clip-path="url(#clip-5)">
<path fill="none" stroke-width="2.98883" stroke-linecap="butt" stroke-linejoin="miter" stroke="rgb(100%, 0%, 0%)" stroke-opacity="1" stroke-miterlimit="10" d="M 96.379094 39.686812 L 215.437687 39.686812 " transform="matrix(1, 0, 0, -1, -94.883, 41.179)"/>
</g>
<g clip-path="url(#clip-6)">
<path fill="none" stroke-width="2.98883" stroke-linecap="butt" stroke-linejoin="miter" stroke="rgb(0%, 0%, 100%)" stroke-opacity="1" stroke-miterlimit="10" d="M 96.379094 -39.684281 L 96.379094 3.593062 " transform="matrix(1, 0, 0, -1, -94.883, 41.179)"/>
</g>
<path fill="none" stroke-width="2.39107" stroke-linecap="round" stroke-linejoin="round" stroke="rgb(0%, 0%, 100%)" stroke-opacity="1" stroke-miterlimit="10" d="M -3.526311 4.703001 C -3.233343 2.937376 0.0010325 0.292845 0.879939 -0.00012375 C 0.0010325 -0.293093 -3.233343 -2.937624 -3.526311 -4.703249 " transform="matrix(0, -1, -1, 0, 1.49597, 37.58697)"/>
<g clip-path="url(#clip-7)">
<path fill="none" stroke-width="2.98883" stroke-linecap="butt" stroke-linejoin="miter" stroke="rgb(0%, 0%, 100%)" stroke-opacity="1" stroke-miterlimit="10" d="M 96.379094 -39.684281 L 96.379094 39.686812 " transform="matrix(1, 0, 0, -1, -94.883, 41.179)"/>
</g>
<g clip-path="url(#clip-8)">
<path fill="none" stroke-width="2.98883" stroke-linecap="butt" stroke-linejoin="miter" stroke="rgb(0%, 0%, 100%)" stroke-opacity="1" stroke-miterlimit="10" d="M 215.437687 -39.684281 L 215.437687 3.593062 " transform="matrix(1, 0, 0, -1, -94.883, 41.179)"/>
</g>
<g clip-path="url(#clip-9)">
<path fill="none" stroke-width="2.39107" stroke-linecap="round" stroke-linejoin="round" stroke="rgb(0%, 0%, 100%)" stroke-opacity="1" stroke-miterlimit="10" d="M -3.526311 4.701348 C -3.233343 2.939629 0.0010325 0.295098 0.879939 -0.0017775 C 0.0010325 -0.294746 -3.233343 -2.939277 -3.526311 -4.700996 " transform="matrix(0, -1, -1, 0, 120.55291, 37.58697)"/>
</g>
<g clip-path="url(#clip-10)">
<path fill="none" stroke-width="2.98883" stroke-linecap="butt" stroke-linejoin="miter" stroke="rgb(0%, 0%, 100%)" stroke-opacity="1" stroke-miterlimit="10" d="M 215.437687 -39.684281 L 215.437687 39.686812 " transform="matrix(1, 0, 0, -1, -94.883, 41.179)"/>
</g>
</svg>
